# xmcd
#
# Track frame offsets: 
#        150
#        11330
#        22292
#        36352
#        47167
#        56890
#        66850
#        76635
#        89707
#        100890
#        110090
#        120982
#        133047
#        145917
#        159725
#        175417
#        189650
#
# Disc length: 2801 seconds
#
# Revision: 8
# Processed by: cddbd v1.5.2PL0 Copyright (c) Steve Scherf et al.
# Submitted via: ExactAudioCopy v1.0b4
#
DISCID=f40aef11
DTITLE=Screamin' Jay Hawkins - Voodoo Jive The Best Of
DYEAR=1990
DGENRE=Rock and Roll
TTITLE0=I Put A Spell On You
TTITLE1=Little Demon
TTITLE2=Alligator Wine
TTITLE3=I Love Paris
TTITLE4=Person To Person
TTITLE5=Frenzy
TTITLE6=Do You Really Love Me
TTITLE7=This Is All
TTITLE8=Just Don't Care
TTITLE9=You Made Me Love You
TTITLE10=Yellow Coat
TTITLE11=I Hear Voices
TTITLE12=Orange Colored Sky
TTITLE13=(She Put The) Wamee (On Me)
TTITLE14=Feast Of The Mau Mau
TTITLE15=Move Me
TTITLE16=Constipation Blues
EXTD=
EXTT0=
EXTT1=
EXTT2=
EXTT3=
EXTT4=
EXTT5=
EXTT6=
EXTT7=
EXTT8=
EXTT9=
EXTT10=
EXTT11=
EXTT12=
EXTT13=
EXTT14=
EXTT15=
EXTT16=
PLAYORDER=
